<?xml version="1.0" encoding="UTF-8"?>
<svg id="Layer_1" xmlns="http://www.w3.org/2000/svg" version="1.1" viewBox="0 0 612 792">
  <!-- Generator: Adobe Illustrator 29.3.0, SVG Export Plug-In . SVG Version: 2.1.0 Build 146)  -->
  <defs>
    <style>
      .st0 {
        fill: #4a516a;
      }
    </style>
  </defs>
  <path class="st0" d="M446.39,375.73c-1.5-.36-1.6.21-2.42,1.05-2.26,2.29-9.53,12.55-11.33,15.62-14.41,24.54.73,58.08,2.78,84.65.8,10.37-.93,20.72-1.02,30.88-.11,11.1,1.99,47.75-1.56,55.33-2.75,5.88-18.91,22.48-24.34,27.56-60.75,56.88-135.8,63.57-199.64,6.99-6.85-6.07-28.3-28.27-30.87-36-3.25-9.77-.89-42.35-1.01-54.88-.09-9.32-1.77-19.15-1.08-28.94,2.07-29.41,18.57-61.47.87-88.62-1.62-2.48-7.6-10.8-9.37-12.59-.83-.83-.92-1.41-2.42-1.05-2.44,6.46-9.89,11.85-12.9,17.65-1.19,2.29.17,6.69-.1,9.79-1.35,15.5-4.4,31.26-10.21,45.68-3.86,9.57-13.05,33.29-24.55,18.04l-52.63-97.07c-.86-32.76,12.42-66.05,37.27-87.52-5.41-23.36-6.51-47.9-1.49-71.46,8.17-38.41,39.51-61.78,75.14-73.56,39.15,5,78.09,15.35,117.66,16.94,47.79,1.92,94.96-10.03,141.89-16.92,20.78,6.05,43.12,18.78,57.29,35.31,25.21,29.41,24.97,73.76,17.32,109.86,18.42,15.89,30.47,38.47,35.09,62.29,1.95,10.08,4.08,20.35-.16,29.85-13.66,30.56-35.96,60.86-50.08,91.64-11.19,15.41-19.08-4.17-23.32-13.99-6.72-15.58-10.33-32.17-11.8-49.08-.24-2.78.85-6.92.48-8.61-.91-4.17-12.29-13.37-13.48-18.82ZM218.85,166.12c-6.08-4.87-17.2-8.1-24.9-9.52-18.52-3.42-31.35-1.85-47.63,7.36-42.08,23.81-37.32,74.49-31.26,115.94.65.77,5.54-3.3,6.46-4.01,11.95-9.25,34.1-30.35,39.66-44.18,1.35-3.35,1.88-8,3.33-11.64,9.06-22.8,28.49-49.99,54.35-53.95ZM496.3,279.9c5.85-39.82,10.85-90.38-28.64-114.57-16.7-10.23-28.94-12.17-48.39-8.86-2.03.35-29.55,7.47-26.77,9.65,22.19,3.16,40.66,25.16,50.08,44.24,3.19,6.47,4.64,13.3,7.33,19.62,6.76,15.91,22.97,31.24,35.89,41.91,1.1.91,9.57,9.13,10.49,8.01ZM231.56,167.36c-17.03,2.89-45.03,26.96-52.19,42.63-3.01,6.6-4.21,13.02-7.91,20.03-1.88,3.55-11.39,16.37-11.51,18.53-.34,6.03,6.19,4.29,8.7,5.17,4.29,1.51,11.76,4.97,15.59,7.39,13.62,8.6,19.68,28.06,39.65,24.32,13.5-2.53,33.81-11.58,47.64-16.23,10.27-3.45,25.92-3.92,28.09-17.82,1.45-9.3,1.18-42.06.06-51.84-.97-8.48-6.38-11.16-12.95-14.99-13.78-8.03-39.28-19.9-55.18-17.21ZM440.79,232.64c-10.59-36.64-44.59-75.37-86.16-61.98-9.12,2.94-28.67,12.05-36.3,17.59-3.74,2.71-6.37,7.83-6.69,12.28-.63,8.66-1.24,46.89.8,53.16,1.52,4.68,6.35,9.28,10.94,11.02,20.7,4.3,41.61,15.21,61.72,20.12,23.54,5.75,28.91-17.13,46.41-26.33,2.46-1.3,5.09-2.34,7.71-3.27,4.93-1.76,14.8-.88,11.5-9.04l-9.92-13.55ZM147.7,264.15l-30.12,21.78c-7.75,23.18-24.65,48.58-23.53,73.36.37,8.3,2.23,29.24,4.26,36.66,2.51,9.21,10.96,6.81,16.75,2.23,18.66-14.77,32.55-49.12,39.18-71.6,4.75-16.12,8.33-37.33,5.67-54.1-.83-5.22-6.81-9.92-12.21-8.32ZM475,272.28c-3.93-2.8-8.29-5.34-12.15-8.33-6.08-.93-10.81,3.51-11.47,9.45-2.82,25.09,3.42,49.46,12.24,72.65,5.94,15.62,20.97,45.73,35.55,54.27,6.02,3.53,12.51,2.29,14.05-5.2,2.61-12.75,5.56-42.3,2.6-54.36l-21.63-54.22c-6.69-4.28-12.91-9.79-19.18-14.25ZM297.42,321.53c1.1-.88,2.13-3.67,2.32-5.16.84-6.76.89-28.32,0-35.02-.36-2.78-2.92-5.86-5.77-6.29-1.64-.25-27.48,8.55-31.63,9.91-8.57,2.82-17,6.48-25.54,9.39-2.98,1.02-7.39.39-9.94,3.04-7.6,7.9,8.4,39.62,16.69,41.2,1.54.29,20.06-8.28,23.99-9.5,5.96-1.85,26.71-5.04,29.87-7.57ZM317.32,275.12c-2.37.86-5.13,2.72-5.62,5.31-.98,5.22-.82,31.24-.08,36.95.17,1.29.27,1.87.99,3.01,2.1,3.3,19.22,5.49,24.05,6.89,4.3,1.24,8.66,2.62,12.89,4.08,5.97,2.06,15.38,8.92,20.51,5.45,7.63-5.16,21.31-30.34,14.91-38.87l-67.66-22.81ZM101.08,307.86c-2.59-2.71-14.49,13.31-15.79,15.64-5.97,10.76-11.67,34.44-9.9,46.47.37,2.52,7.99,20.16,9.23,20.72,3.05,1.38,3.3-4.21,3.48-6.5,1.64-21.61-2.48-36.38,5.81-58.06,1.13-2.96,8.98-16.38,7.17-18.27ZM523.26,348.27c1.15,12.4,0,28.1,0,40.92,0,.31,1.63,1.87,2.48,1.49,2.13-.45,8.48-13.98,9.21-16.75,4.15-15.87-3.55-44.7-13.71-57.57-2.42-3.07-13.99-15.03-10.37-3.6,3.93,12.4,10.99,20.3,12.39,35.51ZM161.96,327.81c-1.85-.34-2.49.86-3.21,2.28-3.03,5.98-5.4,15.82-8.3,22.64-3.51,8.28-7.3,16.5-11.46,24.47-.45,2.3,1.6,1.77,3.01,1.01,5.1-2.75,19.96-27.84,19.96-32.93v-17.47ZM449.4,327.81v17.47c0,2.32,8.79,19.22,10.75,22.18,2.33,3.51,7.68,11.79,12.21,10.74-4.29-10.23-9.2-20.21-13.45-30.46-2.08-5.01-4.01-13.67-6.32-17.64-.81-1.39-1.24-2.66-3.2-2.29ZM298.43,380.46c1.17-1.25,1.16-3.55,1.3-5.19.72-8.49,1.07-28.92.01-37.02s-12.26-4.74-18.25-3.17c-8.67,2.27-23.04,9.15-29.72,15.19-9.16,8.28-7.06,18.99.15,27.82,2.12,2.6,5.97,4.26,9.32,4.66,6.87.82,22.96.66,30.02.03,1.97-.18,5.87-.92,7.17-2.3ZM357.28,380.4c4.32-3.06,9.21-15.64,8.22-21.09-1.57-8.67-20.93-19.11-28.9-21.99-5.37-1.94-22.18-7.69-24.48-.59-1.09,3.37-1.12,34.83-.49,39.53.35,2.6,1.37,4.19,3.99,4.99,4.56,1.39,29.47.96,35.51.49,1.75-.14,4.78-.37,6.15-1.35ZM203.88,362.25v33.93c0,6.72,7.69,17.74,12.45,22.48,1.51,1.5,13.27,11.56,14.16,11.81,3.38.95,3.2-2.07,3.38-4.3,2.47-29.8-4.12-41.48-23.98-61.95-1.41-1.45-4.97-5.62-6.01-1.97ZM407.48,396.18c1.25-9.28,0-23.96,0-33.93,0-4.13-5.47,1.39-6.5,2.48-19.62,20.7-25.97,31.49-23.49,61.44.19,2.24,0,5.25,3.38,4.3.89-.25,12.68-10.33,14.16-11.81,5.58-5.61,11.38-14.56,12.45-22.48ZM349.23,393.09c-6.91-4.16-9.4-1.19-15.15-1.37-8.25-.26-21.31-5-22.46,7.4-1.13,12.22-1.37,41.02.02,52.97.23,1.98,1.11,5.06,3.01,5.97s27.13.96,30.39.44c3.52-.56,5.71-3.56,8.02-5.95-.41-16.05,2.33-35.73.54-51.4-.3-2.67-2.1-6.68-4.39-8.05ZM266.5,391.92c-3.96.72-8.03,4.3-8.66,8.3l.39,51.39c.77,2.5,5.52,6.41,8.08,6.89,3.45.64,25.5.52,28.45-.4s4.91-4.04,4.96-7.02l-.47-54.47c-1.09-2.68-3.23-4.43-6.1-4.88-4.75-.74-21.95-.67-26.65.18ZM403.13,422.79c-1.35.26-18.38,16.5-20.13,18.77-5.77,7.51-6.75,21.33-5.51,30.51,1.16,8.61,7.11,3.06,10.54-.53,7.65-8.01,18.29-18.09,19.44-29.47.42-4.16,1.77-20.45-4.34-19.29ZM224.45,471.91c2.08,2.04,3.81,7.09,7.97,3.7,2.1-1.71,1.75-16.96,1.39-20.54-1.05-10.38-9.37-18.45-16.94-24.98-13.97-12.04-14.26-6.14-13.03,10.04,1.11,14.67,10.88,22.24,20.61,31.78ZM201.59,463.68c-1.62.4-2.3,1.92-2.64,3.42-1.24,5.41-1.95,17.04-2.1,22.86-.19,7.66.27,14.8,3.01,22.02,3.83,10.09,28.89,38.86,37.44,47.4,10.91,10.9,9.93-7.44,9.48-14.47-1.8-28.39-18.17-60.57-39.88-78.88-1.42-1.2-3.28-2.84-5.32-2.34ZM408.21,463.68c-1.99.3-15.45,14.69-17.66,17.36-14.98,18.09-24.69,41.2-25.97,64.85-.47,8.66-1.12,24.39,10.48,12.48,8.67-8.91,31.66-35.46,35.9-45.94,6.26-15.49,2.32-30.1,1.31-46.19-.73-1.85-2.04-2.87-4.06-2.57ZM267.5,466.79c-3.32.84-7.3,5.69-7.77,9.19-1.19,8.75-.57,28.66,0,38.01,1.34,21.68,9.13,49,17.99,68.84,2.37,5.31,9.5,20.34,12.57,24.35,4.05,5.28,8.97,2.46,9.42-3.39l-.04-132.73c-.4-2.14-2.37-4.1-4.49-4.49-3.31-.62-24.64-.55-27.68.22ZM315.37,466.75c-1.92.55-3.85,3.16-3.76,5.23v130.84c-.16,6.21,5.07,10.06,9.45,4.36,3.19-4.16,9.79-18.25,12.25-23.68,13.99-30.9,21.95-72.59,18.34-106.54-.42-3.97-3.53-9.26-7.76-10.2-3-.67-25.9-.75-28.52,0Z"/>
</svg>